<svg xmlns="http://www.w3.org/2000/svg" viewBox="0 0 412.93 94.74"><defs><style>.cls-1,.cls-5{opacity:0.5;}.cls-1,.cls-2,.cls-3{font-size:85.68px;font-family:Raleway-Thin, Raleway;}.cls-1,.cls-2,.cls-3,.cls-4{fill:#43b6ff;}.cls-2,.cls-6{opacity:0.25;}</style></defs><title>Asset 1</title><g id="Layer_2" data-name="Layer 2"><g id="Home"><text class="cls-1" transform="translate(2.38 74.45) scale(1.5 1)">ENR-G</text><text class="cls-2" transform="translate(4.76 75.64) scale(1.5 1)">ENR-G</text><text class="cls-3" transform="translate(0 73.26) scale(1.5 1)">ENR-G</text><path class="cls-4" d="M20.09,33.57c16.06-2.5,32.17-4.72,48.34-6.39s32.43-2.58,48.7-2.71a377.58,377.58,0,0,1,48.7,2.66c4,.43,8.06,1.08,12.09,1.67L190,30.6c8,1.18,16.08,2.34,24.14,3.4,32.19,4.4,64.57,7.78,97.07,8.17,16.24.2,32.5-.34,48.68-1.73a379.57,379.57,0,0,0,48.22-6.87c-31.76,7-64.41,9.51-96.91,9.26S246.2,39.28,214,35c-8.06-1.09-16.1-2.28-24.14-3.49l-12.05-1.83c-4-.6-8-1.27-12.06-1.71a376.76,376.76,0,0,0-48.6-2.82c-16.24.07-32.48,1-48.65,2.54S36.17,31.24,20.09,33.57Z"/><g class="cls-5"><path class="cls-4" d="M20.09,42.57c11.7-1.08,23.33-2.66,35-4.22s23.29-3.07,35-4.06h0l50-.09h0c7.85.77,15.76.93,23.66,1.44s15.77,1.41,23.61,2.47c15.69,2.13,31.23,5.13,46.77,8h0c12.81,1.3,25.61,2.65,38.43,3.7q9.62.79,19.25,1.33c6.42.39,12.85.53,19.28.51,12.86-.06,25.73-.7,38.56-1.47,12.81-1.07,25.58-2.85,38.43-3.71h0c6.74-.91,13.27-3,20-3.9-6.74,1-13.24,3.12-20,4.1h0c-12.84,1-25.56,3-38.4,4-12.86.82-25.71,1.5-38.6,1.6-6.44,0-12.89-.08-19.32-.44s-12.86-.75-19.28-1.26C259.66,49.6,246.85,48.3,234,47h0L210.67,42.8c-7.78-1.39-15.57-2.7-23.39-3.79s-15.68-2-23.55-2.55-15.79-.72-23.68-1.52h0l-50-.09h0c-11.7,1-23.35,2.41-35,3.84S31.79,41.61,20.09,42.57Z"/></g><g class="cls-6"><path class="cls-4" d="M20.09,51.57c15.38-2.7,30.87-4.86,46.43-6.27,7.78-.76,15.58-1.21,23.38-1.65S105.5,43,113.32,43c15.63-.2,31.25.28,46.86,1.21,15.59,1.32,31.07,3.46,46.52,5.78S237.54,54.87,253,56.9l5.8.74,2.9.35,1.45.17,1.45.11c3.88.28,7.78.48,11.68.65,7.8.34,15.61.55,23.41,1.07,15.56,1.22,31.19.07,46.76-.95l11.69-.72c3.88-.31,7.77-.72,11.64-1.19,7.75-.93,15.49-2,23.28-2.62h0l15-2.92-15,3.08h0c-7.78.69-15.5,1.85-23.25,2.86-3.87.51-7.75,1-11.65,1.31l-11.69.76c-15.56,1.07-31.21,2.28-46.84,1.11-7.79-.48-15.59-.67-23.4-1-3.9-.15-7.8-.34-11.71-.61l-1.47-.1-1.46-.17-2.91-.34-5.82-.72c-15.5-2-30.93-4.45-46.36-6.84s-30.9-4.56-46.43-5.93c-15.57-1-31.18-1.52-46.79-1.37-7.8,0-15.61.29-23.4.61s-15.59.86-23.36,1.55C51,47,35.49,49,20.09,51.57Z"/></g></g></g></svg>